<?xml version="1.0" encoding="UTF-8"?>
<svg width="320px" height="160px" viewBox="0 0 320 160" version="1.1" xmlns="http://www.w3.org/2000/svg" xmlns:xlink="http://www.w3.org/1999/xlink">
    <!-- Generator: Sketch 64 (93537) - https://sketch.com -->
    <title>Default Logo</title>
    <desc>Created with Sketch.</desc>
    <g id="02.03:-Edit-Cafe" stroke="none" stroke-width="1" fill="none" fill-rule="evenodd">
        <g id="00:-Edit-Company" transform="translate(-400.000000, -837.000000)">
            <g id="Group-4" transform="translate(380.000000, 272.000000)">
                <g id="Group-7" transform="translate(19.000000, 527.000000)">
                    <g id="Default-Logo" transform="translate(1.000000, 38.000000)">
                        <rect id="Rectangle" fill="#E1E1E1" x="0" y="0" width="320" height="160"></rect>
                        <g id="Cafe-Logo" transform="translate(125.000000, 45.000000)" fill="#FFFFFF" fill-rule="nonzero">
                            <path d="M60.9135703,34.7040943 L56.0766227,34.7040943 L56.3321554,28.636778 C56.3610836,27.94916 56.1396714,27.2779039 55.7198413,26.7799157 C55.3000111,26.2819276 54.7177379,26 54.1095034,26 L5.15664157,26 C4.54803622,26 3.96613384,26.2819276 3.5463037,26.7799157 C3.12647356,27.2783234 2.90506138,27.94916 2.9339896,28.636778 L3.92199976,52.0820763 C4.1660353,57.8758558 7.30326423,62.7508534 11.7111098,64.9655791 L2.22524809,64.9655791 C0.996540269,64.9655791 0,66.0928698 0,67.4827895 C0,68.8727092 0.996540269,70 2.22524809,70 L57.3546569,70 C58.5833647,70 59.579905,68.8727092 59.579905,67.4827895 C59.579905,66.0928698 58.5833647,64.9655791 57.3546569,64.9655791 L47.555406,64.9655791 C51.1284127,63.1699689 53.8639844,59.6261561 54.9024335,55.2613131 L60.9135703,55.2613131 C65.9237164,55.2613131 70,50.6502031 70,44.9827037 C70,39.3152043 65.9237164,34.7040943 60.9135703,34.7040943 Z M42.2133271,61.2107401 L17.0531887,61.2107401 C12.4039037,61.2107401 8.58871587,57.0955205 8.36730369,51.8421023 L7.49055594,31.0335819 L51.775589,31.0335819 L50.8992122,51.8421023 C50.6778,57.0955205 46.8626121,61.2107401 42.2133271,61.2107401 Z M60.9135703,50.2268922 L55.4227706,50.2268922 L55.8648533,39.7330613 C55.8978611,39.7347394 55.9304981,39.7385152 55.9638768,39.7385152 L60.9135703,39.7385152 C63.4700095,39.7385152 65.5495038,42.0908484 65.5495038,44.9827037 C65.5495038,47.874559 63.4700095,50.2268922 60.9135703,50.2268922 Z" id="Shape"></path>
                            <path d="M26.6730719,25.6664909 C26.9564592,25.8922877 27.2673569,26 27.574409,26 C28.1814138,26 28.7727406,25.5795232 29.1040493,24.8239416 C29.603083,23.685782 29.3232455,22.2181026 28.4792958,21.5454993 C27.4924693,20.7588008 26.8103284,19.3074778 26.6079934,17.5641347 C26.3973758,15.7489836 26.7490954,13.9410132 27.5480818,12.7286518 C27.5551813,12.7178806 27.5622807,12.7071093 27.5690844,12.6959392 C27.7622492,12.3919512 27.955414,12.0931494 28.1468039,11.7967412 C29.7885567,9.25393381 31.4865136,6.62535553 31.9740107,2.79957535 C32.1402566,1.49665584 31.4915424,0.258762628 30.5257185,0.0349604716 C29.5595987,-0.188841685 28.6416962,0.685223423 28.4757461,1.98814293 C28.1565657,4.49185476 26.9114959,6.41990436 25.4700073,8.65234084 C25.2756593,8.95313732 25.0798322,9.25672635 24.8840051,9.56470365 C23.3957784,11.8338421 22.7293155,15.0987206 23.1011503,18.3033601 C23.4673647,21.4653135 24.7695261,24.1489447 26.6730719,25.6664909 Z" id="Shape"></path>
                            <path d="M31.501869,20.2616539 C32.0916418,22.2966444 33.1437655,24.1604899 34.4647256,25.5097033 C34.7880437,25.8400253 35.1685231,26 35.546323,26 C36.0845912,26 36.616905,25.6752632 36.9682084,25.0573059 C37.5663172,24.0061003 37.4150781,22.504093 36.6303022,21.7026235 C35.8371903,20.8923773 35.1816225,19.7358517 34.8321055,18.5290596 C34.1357508,16.1262469 34.7954866,13.7318119 37.038469,10.5223435 C38.6285632,8.24679244 39.6449611,5.56671674 39.9775084,2.77094859 C40.1326178,1.46561848 39.4690117,0.23848052 38.4945916,0.0302340907 C37.5204691,-0.178012339 36.6046987,0.71162279 36.4492917,2.01735184 C36.2263034,3.89196864 35.5472162,5.65248874 34.4307861,7.25024152 C33.2592788,8.92618644 29.6950386,14.0266282 31.501869,20.2616539 Z" id="Shape"></path>
                        </g>
                    </g>
                </g>
            </g>
        </g>
    </g>
</svg>