<?xml version="1.0" encoding="UTF-8"?>
<svg width="125px" height="150px" viewBox="0 0 125 150" version="1.1" xmlns="http://www.w3.org/2000/svg" xmlns:xlink="http://www.w3.org/1999/xlink">
    <title>icons8-kawaii-coffee</title>
    <g id="101.00:-404" stroke="none" stroke-width="1" fill="none" fill-rule="evenodd">
        <g id="00:-404" transform="translate(-657.000000, -194.000000)">
            <g id="Group-4" transform="translate(258.000000, 194.000000)">
                <g id="icons8-kawaii-coffee" transform="translate(399.000000, 0.000000)">
                    <polygon id="Path" fill="#F5CE85" fill-rule="nonzero" points="116.666667 29.1666667 8.33333333 29.1666667 25 150 100 150"></polygon>
                    <path d="M125,37.5 L125,27.0833333 C125,23.6333333 122.2,20.8333333 118.75,20.8333333 L6.25,20.8333333 C2.8,20.8333333 0,23.6333333 0,27.0833333 L0,37.5 L125,37.5 Z" id="Path" fill="#795548" fill-rule="nonzero"></path>
                    <polygon id="Path" fill="#4E342E" fill-rule="nonzero" points="112.5 0 12.5 8.33333333 8.33333333 20.8333333 116.666667 20.8333333"></polygon>
                    <path d="M75,84.1666667 C75,84.1666667 70.4166667,90.8333333 62.5,90.8333333 C54.5833333,90.8333333 50,84.1666667 50,84.1666667" id="Path" stroke="#000000" stroke-width="8.33333333" stroke-linecap="round" stroke-linejoin="round" transform="translate(62.500000, 87.500000) scale(1, -1) translate(-62.500000, -87.500000) "></path>
                    <path d="M33.3333333,54.1666667 C28.7309604,54.1666667 25,57.8976271 25,62.5 C25,67.1023729 28.7309604,70.8333333 33.3333333,70.8333333 C37.9357062,70.8333333 41.6666667,67.1023729 41.6666667,62.5 C41.6666667,57.8976271 37.9357062,54.1666667 33.3333333,54.1666667 Z M91.6666667,54.1666667 C87.0642938,54.1666667 83.3333333,57.8976271 83.3333333,62.5 C83.3333333,67.1023729 87.0642938,70.8333333 91.6666667,70.8333333 C96.2690396,70.8333333 100,67.1023729 100,62.5 C100,57.8976271 96.2690396,54.1666667 91.6666667,54.1666667 Z" id="Shape" fill="#000000" fill-rule="nonzero"></path>
                    <path d="M33.3333333,54.1666667 C31.0321469,54.1666667 29.1666667,56.0321469 29.1666667,58.3333333 C29.1666667,60.6345198 31.0321469,62.5 33.3333333,62.5 C35.6345198,62.5 37.5,60.6345198 37.5,58.3333333 C37.5,56.0321469 35.6345198,54.1666667 33.3333333,54.1666667 Z M91.6666667,54.1666667 C89.3654802,54.1666667 87.5,56.0321469 87.5,58.3333333 C87.5,60.6345198 89.3654802,62.5 91.6666667,62.5 C93.9678531,62.5 95.8333333,60.6345198 95.8333333,58.3333333 C95.8333333,56.0321469 93.9678531,54.1666667 91.6666667,54.1666667 Z" id="Shape" fill="#FFFFFF" fill-rule="nonzero"></path>
                    <path d="M104.166667,112.5 C104.516667,112.5 104.841667,112.416667 105.1875,112.395833 L109.633333,80.1583333 C107.9125,79.5583333 106.091667,79.1666667 104.166667,79.1666667 C94.9625,79.1666667 87.5,86.6291667 87.5,95.8333333 C87.5,105.0375 94.9625,112.5 104.166667,112.5 Z M19.8125,112.395833 C20.1583333,112.416667 20.4833333,112.5 20.8333333,112.5 C30.0375,112.5 37.5,105.0375 37.5,95.8333333 C37.5,86.6291667 30.0375,79.1666667 20.8333333,79.1666667 C18.9083333,79.1666667 17.0875,79.5583333 15.3666667,80.1583333 L19.8125,112.395833 Z" id="Shape" fill="#FF9592" fill-rule="nonzero"></path>
                </g>
            </g>
        </g>
    </g>
</svg>