<?xml version="1.0" encoding="UTF-8"?>
<svg width="78px" height="78px" viewBox="0 0 78 78" version="1.1" xmlns="http://www.w3.org/2000/svg" xmlns:xlink="http://www.w3.org/1999/xlink">
    <title>amenities</title>
    <g id="Page-1" stroke="none" stroke-width="1" fill="none" fill-rule="evenodd">
        <g id="amenities" fill-rule="nonzero">
            <circle id="Oval" fill="#78A0CF" cx="2" cy="18" r="2"></circle>
            <circle id="Oval" fill="#F1BC19" cx="66" cy="2" r="1"></circle>
            <circle id="Oval" fill="#CEE1F4" cx="39" cy="39" r="37"></circle>
            <circle id="Oval" fill="#F1BC19" cx="72" cy="4" r="4"></circle>
            <circle id="Oval" fill="#78A0CF" cx="76" cy="13" r="2"></circle>
            <circle id="Oval" fill="#FBCD59" cx="70" cy="65" r="2"></circle>
            <circle id="Oval" fill="#FBCD59" cx="4" cy="52" r="4"></circle>
            <circle id="Oval" fill="#78A0CF" cx="14" cy="76" r="2"></circle>
            <circle id="Oval" fill="#FFFFFF" cx="9.5" cy="30.5" r="2.5"></circle>
            <circle id="Oval" fill="#F1BC19" cx="10" cy="56" r="1"></circle>
            <circle id="Oval" fill="#FFFFFF" cx="69" cy="23" r="1"></circle>
            <g id="Group" transform="translate(14.000000, 14.000000)">
                <rect id="Rectangle" fill="#EDF7F5" x="3.7" y="0.7" width="42.6" height="41.6"></rect>
                <path d="M45.6,1.4 L45.6,41.6 L4.4,41.6 L4.4,1.4 L45.6,1.4 M47,0 L3,0 L3,43 L47,43 L47,0 L47,0 Z" id="Shape" fill="#472B29"></path>
                <polyline id="Path" fill="#C0E5E4" points="6.5 16 6.5 22.49 6.5 33.731 6.5 39.5 7.194 39.5 29.028 39.5 31.5 39.5 31.5 34.729 31.5 16"></polyline>
                <polygon id="Path" fill="#472B29" points="32 40 6 40 6 16 7 16 7 39 31 39 31 16 32 16"></polygon>
                <polyline id="Path" fill="#C0E5E4" points="34.5 15 34.5 22.01 34.5 33.568 34.5 39.5 34.751 39.5 42.611 39.5 43.5 39.5 43.5 34.594 43.5 15"></polyline>
                <polygon id="Path" fill="#472B29" points="44 40 34 40 34 15 35 15 35 39 43 39 43 15 44 15"></polygon>
                <path d="M40.774,26.728 C40.181,26.728 39.701,27.193 39.701,27.766 C39.701,28.339 40.181,28.804 40.774,28.804 L40.774,28.804 C41.367,28.804 41.847,28.339 41.847,27.766 C41.847,27.193 41.367,26.728 40.774,26.728 Z" id="Path" fill="#FFFFFF"></path>
                <path d="M40.774,29.179 C39.975,29.179 39.326,28.545 39.326,27.766 C39.326,26.987 39.975,26.353 40.774,26.353 C41.573,26.353 42.222,26.987 42.222,27.766 C42.222,28.545 41.573,29.179 40.774,29.179 Z M40.774,27.103 C40.389,27.103 40.076,27.4 40.076,27.766 C40.076,28.132 40.389,28.429 40.774,28.429 C41.159,28.429 41.472,28.132 41.472,27.766 C41.472,27.4 41.159,27.103 40.774,27.103 Z" id="Shape" fill="#472B29"></path>
                <line x1="16.332" y1="26.072" x2="18.359" y2="23.922" id="Path" fill="#FDFCEE"></line>
                <path d="M16.332,26.447 C16.239,26.447 16.147,26.413 16.075,26.345 C15.924,26.203 15.917,25.966 16.059,25.815 L18.086,23.665 C18.229,23.515 18.466,23.508 18.615,23.649 C18.766,23.791 18.773,24.028 18.631,24.179 L16.604,26.329 C16.531,26.408 16.431,26.447 16.332,26.447 Z" id="Path" fill="#472B29"></path>
                <line x1="21.449" y1="25.221" x2="18.775" y2="23.803" id="Path" fill="#FDFCEE"></line>
                <path d="M21.449,25.596 C21.389,25.596 21.329,25.582 21.273,25.552 L18.599,24.134 C18.416,24.037 18.346,23.81 18.444,23.627 C18.542,23.443 18.77,23.375 18.951,23.472 L21.625,24.89 C21.808,24.987 21.878,25.214 21.78,25.397 C21.712,25.523 21.583,25.596 21.449,25.596 Z" id="Path" fill="#472B29"></path>
                <path d="M18.945,23.748 C18.978,23.929 18.846,24.1 18.651,24.13 C18.456,24.16 18.272,24.038 18.239,23.858 C18.206,23.678 18.338,23.506 18.533,23.476 C18.728,23.445 18.912,23.567 18.945,23.748 Z" id="Path" fill="#FDFCEE"></path>
                <path d="M18.592,24.509 C18.242,24.509 17.931,24.265 17.87,23.923 C17.837,23.742 17.878,23.556 17.987,23.403 C18.099,23.244 18.277,23.135 18.474,23.105 C18.874,23.044 19.245,23.302 19.313,23.681 C19.346,23.864 19.304,24.049 19.196,24.202 C19.083,24.361 18.905,24.47 18.708,24.5 C18.67,24.506 18.63,24.509 18.592,24.509 Z" id="Shape" fill="#472B29"></path>
                <polygon id="Path" fill="#CBC9BC" points="26.57 28.109 12.912 30.237 12.289 26.796 25.946 24.669"></polygon>
                <path d="M12.912,30.612 C12.733,30.612 12.576,30.485 12.543,30.304 L11.92,26.863 C11.902,26.763 11.925,26.661 11.983,26.579 C12.042,26.496 12.131,26.441 12.231,26.426 L25.889,24.299 C26.1,24.268 26.279,24.403 26.316,24.603 L26.939,28.044 C26.957,28.144 26.934,28.246 26.876,28.328 C26.817,28.411 26.728,28.466 26.628,28.481 L12.97,30.608 C12.95,30.61 12.93,30.612 12.912,30.612 Z M12.726,27.107 L13.215,29.81 L26.132,27.798 L25.643,25.095 L12.726,27.107 Z" id="Shape" fill="#472B29"></path>
                <path d="M7.501,3.891 L4.006,3.891 L2.221,13.75 C2.221,13.75 2.206,13.753 2.205,13.753 C2.205,13.756 2.205,13.75 2.205,13.753 L2.205,13.753 L2.205,13.753 C2.194,13.982 2.188,14.226 2.188,14.497 L2.188,14.497 C2.188,15.896 3.24,17.04 4.526,17.04 L4.931,17.04 C6.217,17.04 7.502,15.896 7.502,14.497 L7.502,14.497 C7.502,14.228 7.511,13.981 7.502,13.753 L7.502,13.753 L7.501,3.891 L7.501,3.891 Z" id="Path" fill="#FFFFFF"></path>
                <path d="M4.93,17.415 L4.525,17.415 C3.03,17.415 1.813,16.106 1.813,14.497 C1.813,14.22 1.82,13.971 1.83,13.737 C1.833,13.682 1.847,13.63 1.871,13.583 L3.638,3.825 C3.67,3.647 3.826,3.517 4.007,3.517 L7.502,3.517 C7.709,3.517 7.877,3.685 7.877,3.892 L7.877,13.753 C7.883,13.895 7.881,14.059 7.879,14.233 L7.877,14.497 C7.877,16.051 6.5,17.415 4.93,17.415 Z M2.575,13.874 C2.568,14.068 2.563,14.273 2.563,14.497 C2.563,15.692 3.443,16.665 4.525,16.665 L4.93,16.665 C5.967,16.665 7.126,15.738 7.126,14.497 L7.128,14.224 C7.13,14.063 7.132,13.912 7.126,13.767 L7.126,4.266 L4.32,4.266 L2.591,13.816 C2.587,13.836 2.582,13.855 2.575,13.874 Z" id="Shape" fill="#472B29"></path>
                <path d="M12.51,3.891 L7.501,3.891 L7.501,13.58 L7.518,13.58 C7.507,13.82 7.501,14.079 7.501,14.363 C7.501,15.835 8.608,17.04 9.962,17.04 L10.284,17.04 C11.589,17.04 12.51,15.896 12.51,14.497 C12.51,14.228 12.519,13.981 12.51,13.753 L12.51,13.753 L12.51,3.891 Z" id="Path" fill="#EE3E54"></path>
                <path d="M10.284,17.415 L9.962,17.415 C8.399,17.415 7.127,16.046 7.127,14.363 C7.127,14.115 7.131,13.886 7.14,13.672 C7.131,13.642 7.127,13.611 7.127,13.58 L7.127,3.892 C7.127,3.685 7.295,3.517 7.502,3.517 L12.511,3.517 C12.718,3.517 12.886,3.685 12.886,3.892 L12.886,13.753 C12.892,13.895 12.89,14.059 12.888,14.233 L12.886,14.497 C12.885,16.16 11.767,17.415 10.284,17.415 Z M7.877,13.479 C7.889,13.517 7.895,13.556 7.894,13.596 C7.883,13.831 7.877,14.084 7.877,14.363 C7.877,15.632 8.813,16.665 9.962,16.665 L10.284,16.665 C11.34,16.665 12.136,15.733 12.136,14.497 L12.138,14.224 C12.14,14.063 12.142,13.912 12.136,13.767 L12.136,4.266 L7.877,4.266 L7.877,13.479 Z" id="Shape" fill="#472B29"></path>
                <path d="M17.519,3.891 L12.51,3.891 L12.51,13.58 L12.527,13.58 C12.516,13.82 12.51,14.079 12.51,14.363 C12.51,15.835 13.617,17.04 14.971,17.04 L15.293,17.04 C16.598,17.04 17.519,15.896 17.519,14.497 C17.519,14.228 17.528,13.981 17.519,13.753 L17.519,13.753 L17.519,3.891 Z" id="Path" fill="#FFFFFF"></path>
                <path d="M15.293,17.415 L14.97,17.415 C13.407,17.415 12.135,16.046 12.135,14.363 C12.135,14.115 12.139,13.886 12.148,13.672 C12.139,13.642 12.135,13.611 12.135,13.58 L12.135,3.892 C12.135,3.685 12.303,3.517 12.51,3.517 L17.519,3.517 C17.726,3.517 17.894,3.685 17.894,3.892 L17.894,13.753 C17.9,13.895 17.898,14.059 17.896,14.233 L17.894,14.497 C17.894,16.16 16.776,17.415 15.293,17.415 Z M12.885,13.479 C12.897,13.517 12.903,13.556 12.902,13.596 C12.891,13.831 12.885,14.084 12.885,14.363 C12.885,15.632 13.821,16.665 14.97,16.665 L15.292,16.665 C16.348,16.665 17.144,15.733 17.144,14.497 L17.146,14.224 C17.148,14.063 17.15,13.912 17.144,13.767 L17.144,4.266 L12.885,4.266 L12.885,13.479 Z" id="Shape" fill="#472B29"></path>
                <path d="M22.528,3.891 L17.519,3.891 L17.519,13.58 L17.536,13.58 C17.525,13.82 17.519,14.079 17.519,14.363 C17.519,15.835 18.626,17.04 19.98,17.04 L20.302,17.04 C21.607,17.04 22.528,15.896 22.528,14.497 C22.528,14.228 22.537,13.981 22.528,13.753 L22.528,13.753 L22.528,3.891 Z" id="Path" fill="#EE3E54"></path>
                <path d="M20.302,17.415 L19.979,17.415 C18.416,17.415 17.144,16.046 17.144,14.363 C17.144,14.115 17.148,13.886 17.157,13.672 C17.148,13.642 17.144,13.611 17.144,13.58 L17.144,3.892 C17.144,3.685 17.312,3.517 17.519,3.517 L22.528,3.517 C22.735,3.517 22.903,3.685 22.903,3.892 L22.903,13.753 C22.909,13.895 22.907,14.059 22.905,14.233 L22.903,14.497 C22.903,16.16 21.785,17.415 20.302,17.415 Z M17.894,13.479 C17.906,13.517 17.912,13.556 17.911,13.596 C17.9,13.831 17.894,14.084 17.894,14.363 C17.894,15.632 18.83,16.665 19.979,16.665 L20.302,16.665 C21.357,16.665 22.153,15.733 22.153,14.497 L22.155,14.224 C22.157,14.063 22.159,13.912 22.153,13.767 L22.153,4.266 L17.894,4.266 L17.894,13.479 Z" id="Shape" fill="#472B29"></path>
                <path d="M27.537,3.891 L22.528,3.891 L22.528,13.58 L22.545,13.58 C22.534,13.82 22.528,14.079 22.528,14.363 C22.528,15.835 23.635,17.04 24.989,17.04 L25.311,17.04 C26.616,17.04 27.537,15.896 27.537,14.497 C27.537,14.228 27.546,13.981 27.537,13.753 L27.537,13.753 L27.537,3.891 Z" id="Path" fill="#FFFFFF"></path>
                <path d="M25.311,17.415 L24.988,17.415 C23.425,17.415 22.153,16.046 22.153,14.363 C22.153,14.115 22.157,13.886 22.166,13.672 C22.157,13.642 22.153,13.611 22.153,13.58 L22.153,3.892 C22.153,3.685 22.321,3.517 22.528,3.517 L27.537,3.517 C27.744,3.517 27.912,3.685 27.912,3.892 L27.912,13.753 C27.918,13.895 27.916,14.059 27.914,14.233 L27.912,14.497 C27.912,16.16 26.794,17.415 25.311,17.415 Z M22.903,13.479 C22.915,13.517 22.921,13.556 22.92,13.596 C22.909,13.831 22.903,14.084 22.903,14.363 C22.903,15.632 23.839,16.665 24.988,16.665 L25.311,16.665 C26.366,16.665 27.162,15.733 27.162,14.497 L27.164,14.224 C27.166,14.063 27.168,13.912 27.162,13.767 L27.162,4.266 L22.903,4.266 L22.903,13.479 Z" id="Shape" fill="#472B29"></path>
                <path d="M32.545,3.891 L27.536,3.891 L27.536,13.58 L27.553,13.58 C27.542,13.82 27.536,14.079 27.536,14.363 C27.536,15.835 28.643,17.04 29.997,17.04 L30.319,17.04 C31.624,17.04 32.545,15.877 32.545,14.479 C32.545,14.21 32.554,13.982 32.545,13.753 L32.545,13.753 L32.545,3.891 Z" id="Path" fill="#EE3E54"></path>
                <path d="M30.32,17.415 L29.998,17.415 C28.435,17.415 27.162,16.046 27.162,14.363 C27.162,14.115 27.166,13.886 27.175,13.672 C27.166,13.642 27.162,13.611 27.162,13.58 L27.162,3.892 C27.162,3.685 27.33,3.517 27.537,3.517 L32.546,3.517 C32.753,3.517 32.921,3.685 32.921,3.892 L32.921,13.753 C32.927,13.894 32.925,14.05 32.923,14.218 L32.921,14.479 C32.92,16.125 31.778,17.415 30.32,17.415 Z M27.912,13.479 C27.924,13.517 27.93,13.556 27.929,13.596 C27.918,13.831 27.912,14.084 27.912,14.363 C27.912,15.632 28.848,16.665 29.998,16.665 L30.32,16.665 C31.375,16.665 32.171,15.725 32.171,14.479 L32.173,14.208 C32.175,14.054 32.177,13.91 32.171,13.767 L32.171,4.266 L27.912,4.266 L27.912,13.479 Z" id="Shape" fill="#472B29"></path>
                <path d="M37.554,3.891 L32.545,3.891 L32.545,13.58 L32.551,13.58 C32.547,13.743 32.545,13.911 32.545,14.091 C32.545,15.713 33.654,17.04 35.009,17.04 L35.332,17.04 C36.638,17.04 37.557,15.746 37.557,14.205 C37.557,14.035 37.558,13.908 37.554,13.753 L37.554,13.753 C37.554,13.753 37.554,3.891 37.554,3.891 Z" id="Path" fill="#FFFFFF"></path>
                <path d="M35.332,17.415 L35.01,17.415 C33.445,17.415 32.171,15.924 32.171,14.091 C32.171,13.933 32.173,13.783 32.176,13.637 C32.173,13.618 32.171,13.599 32.171,13.58 L32.171,3.892 C32.171,3.685 32.339,3.517 32.546,3.517 L37.555,3.517 C37.762,3.517 37.93,3.685 37.93,3.892 L37.933,14.205 C37.932,16.004 36.79,17.415 35.332,17.415 Z M32.92,13.516 C32.924,13.54 32.926,13.564 32.926,13.588 C32.922,13.749 32.92,13.914 32.92,14.09 C32.92,15.509 33.858,16.664 35.009,16.664 L35.331,16.664 C36.369,16.664 37.182,15.583 37.182,14.204 L37.179,13.759 L37.179,4.266 L32.92,4.266 L32.92,13.516 Z" id="Shape" fill="#472B29"></path>
                <g transform="translate(37.000000, 3.000000)">
                    <path d="M5.563,0.891 L0.554,0.891 L0.554,10.58 L0.571,10.58 C0.56,10.82 0.554,11.079 0.554,11.363 C0.554,12.835 1.661,14.04 3.015,14.04 L3.337,14.04 C4.642,14.04 5.563,12.896 5.563,11.497 C5.563,11.228 5.572,10.981 5.563,10.753 L5.563,10.753 L5.563,0.891 Z" id="Path" fill="#EE3E54"></path>
                    <path d="M3.337,14.415 L3.015,14.415 C1.452,14.415 0.179,13.046 0.179,11.363 C0.179,11.115 0.183,10.886 0.192,10.672 C0.183,10.642 0.179,10.611 0.179,10.58 L0.179,0.892 C0.179,0.685 0.347,0.517 0.554,0.517 L5.563,0.517 C5.77,0.517 5.938,0.685 5.938,0.892 L5.938,10.753 C5.944,10.895 5.942,11.059 5.94,11.233 L5.938,11.497 C5.938,13.16 4.82,14.415 3.337,14.415 Z M0.929,10.479 C0.941,10.517 0.947,10.556 0.946,10.596 C0.935,10.831 0.929,11.084 0.929,11.363 C0.929,12.632 1.865,13.665 3.015,13.665 L3.337,13.665 C4.392,13.665 5.188,12.733 5.188,11.497 L5.19,11.224 C5.192,11.063 5.194,10.912 5.188,10.767 L5.188,1.266 L0.929,1.266 C0.929,1.266 0.929,10.479 0.929,10.479 Z" id="Shape" fill="#472B29"></path>
                </g>
                <g transform="translate(42.000000, 3.000000)">
                    <path d="M5.628,10.753 L5.628,10.753 L4.031,0.891 L0.562,0.891 L0.562,10.58 L0.579,10.58 C0.568,10.82 0.562,11.079 0.562,11.363 L0.562,11.363 C0.562,12.835 1.669,14.04 3.023,14.04 L3.305,14.04 C4.591,14.04 5.643,12.896 5.643,11.497 L5.643,11.497 C5.643,11.227 5.638,10.982 5.628,10.753 Z" id="Path" fill="#FFFFFF"></path>
                    <path d="M3.305,14.415 L3.024,14.415 C1.461,14.415 0.188,13.046 0.188,11.363 C0.188,11.115 0.192,10.886 0.201,10.672 C0.192,10.642 0.188,10.611 0.188,10.58 L0.188,0.892 C0.188,0.685 0.356,0.517 0.563,0.517 L4.032,0.517 C4.216,0.517 4.373,0.65 4.402,0.832 L5.999,10.693 C6.002,10.708 6.003,10.723 6.004,10.739 C6.013,10.972 6.019,11.222 6.019,11.497 C6.018,13.105 4.801,14.415 3.305,14.415 Z M0.938,10.479 C0.95,10.517 0.956,10.556 0.955,10.596 C0.944,10.831 0.938,11.084 0.938,11.363 C0.938,12.632 1.874,13.665 3.024,13.665 L3.305,13.665 C4.387,13.665 5.268,12.692 5.268,11.497 C5.268,11.241 5.263,11.008 5.254,10.79 L3.712,1.267 L0.938,1.267 L0.938,10.479 Z" id="Shape" fill="#472B29"></path>
                </g>
                <path d="M47.572,15 L2.493,15 C2.286,14.646 2.118,14.478 2.118,14.271 C2.118,14.064 2.286,13.896 2.493,14 L47.572,14 C47.779,13.896 47.947,14.064 47.947,14.271 C47.947,14.478 47.779,14.646 47.572,15 Z" id="Path" fill="#472B29"></path>
                <g transform="translate(2.000000, 41.000000)">
                    <rect id="Rectangle" fill="#BD977C" x="0.7" y="0.7" width="44.6" height="2.6"></rect>
                    <path d="M44.6,1.4 L44.6,2.6 L1.4,2.6 L1.4,1.4 L44.6,1.4 M46,0 L0,0 L0,4 L46,4 L46,0 L46,0 Z" id="Shape" fill="#472B29"></path>
                </g>
                <path d="M13.257,30.308 C13.247,30.308 13.236,30.307 13.226,30.304 C13.16,30.287 13.119,30.219 13.136,30.152 L14.067,26.527 C14.084,26.461 14.146,26.419 14.219,26.437 C14.285,26.454 14.326,26.522 14.309,26.589 L13.378,30.214 C13.364,30.271 13.313,30.308 13.257,30.308 Z M14.514,30.125 C14.504,30.125 14.493,30.124 14.483,30.121 C14.417,30.104 14.376,30.036 14.393,29.969 L15.324,26.344 C15.341,26.278 15.402,26.239 15.476,26.254 C15.542,26.271 15.583,26.339 15.566,26.406 L14.635,30.031 C14.621,30.088 14.57,30.125 14.514,30.125 Z M15.771,29.943 C15.761,29.943 15.75,29.942 15.74,29.939 C15.674,29.922 15.633,29.854 15.65,29.787 L16.581,26.163 C16.599,26.097 16.659,26.057 16.733,26.073 C16.799,26.09 16.84,26.158 16.823,26.225 L15.892,29.849 C15.878,29.905 15.827,29.943 15.771,29.943 Z M17.028,29.76 C17.018,29.76 17.007,29.759 16.997,29.756 C16.931,29.739 16.89,29.671 16.907,29.604 L17.838,25.98 C17.856,25.914 17.919,25.873 17.99,25.89 C18.056,25.907 18.097,25.975 18.08,26.042 L17.149,29.666 C17.134,29.723 17.084,29.76 17.028,29.76 Z M18.285,29.578 C18.275,29.578 18.264,29.577 18.254,29.574 C18.188,29.557 18.147,29.489 18.164,29.422 L19.095,25.798 C19.112,25.732 19.175,25.691 19.247,25.708 C19.313,25.725 19.354,25.793 19.337,25.86 L18.406,29.484 C18.391,29.54 18.34,29.578 18.285,29.578 Z M19.542,29.396 C19.532,29.396 19.521,29.395 19.511,29.392 C19.445,29.375 19.404,29.307 19.421,29.24 L20.352,25.615 C20.369,25.549 20.431,25.507 20.504,25.525 C20.57,25.542 20.611,25.61 20.594,25.677 L19.663,29.302 C19.648,29.358 19.597,29.396 19.542,29.396 Z M20.798,29.213 C20.788,29.213 20.777,29.212 20.767,29.209 C20.701,29.192 20.66,29.124 20.677,29.057 L21.608,25.433 C21.625,25.367 21.687,25.327 21.76,25.343 C21.826,25.36 21.867,25.428 21.85,25.495 L20.919,29.119 C20.905,29.175 20.854,29.213 20.798,29.213 Z M22.055,28.848 C22.045,28.848 22.034,28.847 22.024,28.844 C21.958,28.827 21.917,28.759 21.934,28.692 L22.865,25.068 C22.883,25.002 22.943,24.961 23.017,24.978 C23.083,24.995 23.124,25.063 23.107,25.13 L22.176,28.754 C22.162,28.81 22.111,28.848 22.055,28.848 Z M23.374,28.792 C23.364,28.792 23.353,28.791 23.343,28.788 C23.277,28.771 23.236,28.703 23.253,28.636 L24.184,25.012 C24.202,24.946 24.262,24.906 24.336,24.922 C24.402,24.939 24.443,25.007 24.426,25.074 L23.495,28.698 C23.48,28.754 23.429,28.792 23.374,28.792 Z M24.569,28.666 C24.559,28.666 24.548,28.665 24.538,28.662 C24.472,28.645 24.431,28.577 24.448,28.51 L25.379,24.885 C25.397,24.819 25.459,24.777 25.531,24.795 C25.597,24.812 25.638,24.88 25.621,24.947 L24.69,28.572 C24.675,28.628 24.625,28.666 24.569,28.666 Z" id="Shape" fill="#472B29"></path>
                <g transform="translate(0.000000, 36.000000)">
                    <path d="M5.059,0.415999632 C2.677,0.415 0.745,2.454 0.742999612,4.97 C0.742,7.486 2.672,9.527 5.055,9.52800037 C5.056,9.52800037 5.058,9.52800037 5.059,9.52800037 C7.441,9.529 9.373,7.49 9.37500039,4.974 C9.376,2.458 7.446,0.417 5.063,0.415999632 C5.062,0.415999632 5.061,0.415999632 5.059,0.415999632 Z" id="Path" fill="#FBCD59"></path>
                    <path d="M5,10 C2.244,10 0,7.757 0,5 C0,2.243 2.243,0 5,0 C7.757,0 10,2.243 10,5 C10.001,7.757 7.758,10 5,10 Z M5,0.965 C2.775,0.965 0.964,2.776 0.964,5.001 C0.964,7.226 2.775,9.037 5,9.037 C7.226,9.037 9.036,7.227 9.036,5.001 C9.036,2.775 7.226,0.965 5,0.965 Z" id="Shape" fill="#472B29"></path>
                    <path d="M5.067,2.12499767 C3.513,2.123 2.252,3.409 2.2499994,4.997 C2.249,6.585 3.507,7.873 5.062,7.87500233 C5.064,7.87500233 5.066,7.87500233 5.067,7.87500233 C6.621,7.877 7.882,6.591 7.8840006,5.003 C7.885,3.415 6.627,2.127 5.072,2.12499767 C5.071,2.12499767 5.069,2.12499767 5.067,2.12499767 Z" id="Path" fill="#F1BC19"></path>
                    <path d="M5,8 C3.346,8 2,6.654 2,5 C2,3.346 3.346,2 5,2 C6.655,2 8,3.346 8,5 C8,6.654 6.654,8 5,8 Z M5,2.453 C3.595,2.453 2.453,3.596 2.453,5.001 C2.453,6.406 3.596,7.549 5,7.549 C6.406,7.549 7.548,6.406 7.548,5.001 C7.548,3.596 6.405,2.453 5,2.453 Z" id="Shape" fill="#472B29"></path>
                    <g transform="translate(5.000000, 4.000000)">
                        <path d="M5.059,0.415999632 C2.677,0.415 0.745,2.454 0.742999612,4.97 C0.742,7.486 2.672,9.527 5.055,9.52800037 C5.056,9.52800037 5.058,9.52800037 5.059,9.52800037 C7.441,9.529 9.373,7.49 9.37500039,4.974 C9.376,2.458 7.446,0.417 5.063,0.415999632 C5.062,0.415999632 5.061,0.415999632 5.059,0.415999632 Z" id="Path" fill="#FBCD59"></path>
                        <path d="M5,10 C2.244,10 0,7.757 0,5 C0,2.243 2.243,0 5,0 C7.757,0 10,2.243 10,5 C10.001,7.757 7.758,10 5,10 Z M5,0.965 C2.775,0.965 0.964,2.776 0.964,5.001 C0.964,7.226 2.775,9.037 5,9.037 C7.226,9.037 9.036,7.227 9.036,5.001 C9.036,2.775 7.226,0.965 5,0.965 Z" id="Shape" fill="#472B29"></path>
                        <path d="M5.067,2.12499767 C3.513,2.123 2.252,3.409 2.2499994,4.997 C2.249,6.585 3.507,7.873 5.062,7.87500233 C5.064,7.87500233 5.066,7.87500233 5.067,7.87500233 C6.621,7.877 7.882,6.591 7.8840006,5.003 C7.885,3.415 6.627,2.127 5.072,2.12499767 C5.071,2.12499767 5.069,2.12499767 5.067,2.12499767 Z" id="Path" fill="#F1BC19"></path>
                        <path d="M5,8 C3.346,8 2,6.654 2,5 C2,3.346 3.346,2 5,2 C6.655,2 8,3.346 8,5 C8,6.654 6.654,8 5,8 Z M5,2.453 C3.595,2.453 2.453,3.596 2.453,5.001 C2.453,6.406 3.596,7.549 5,7.549 C6.406,7.549 7.548,6.406 7.548,5.001 C7.548,3.596 6.405,2.453 5,2.453 Z" id="Shape" fill="#472B29"></path>
                    </g>
                </g>
                <rect id="Rectangle" fill="#472B29" x="3" y="3" width="43" height="1"></rect>
            </g>
        </g>
    </g>
</svg>