<?xml version="1.0" encoding="UTF-8"?>
<svg width="28px" height="51px" viewBox="0 0 28 51" version="1.1" xmlns="http://www.w3.org/2000/svg" xmlns:xlink="http://www.w3.org/1999/xlink">
    <title>Path</title>
    <g id="Symbols" stroke="none" stroke-width="1" fill="none" fill-rule="evenodd">
        <g id="Icon-/-Dropdown-/-Outlined---Dark" transform="translate(-11.000000, 1.000000)" fill="#342C0C" fill-rule="nonzero">
            <path d="M47.6989025,11 C47.0998647,11.0143668 46.5308294,11.2624861 46.1157501,11.6903096 L25.0078091,32.5862294 L3.89986814,11.6903096 C3.47223738,11.2547837 2.88481866,11.0090375 2.27128816,11.0089943 C1.34680244,11.0090612 0.514596744,11.5638114 0.166869039,12.4118047 C-0.180858667,13.259798 0.025279532,14.2318202 0.688135803,14.8697813 L23.401943,37.3554369 C24.2889168,38.2332363 25.7267015,38.2332363 26.6136753,37.3554369 L49.3274825,14.8697813 C50.0017448,14.2269235 50.2085481,13.2404019 49.8483585,12.3850277 C49.4881688,11.5296534 48.6347704,10.9806487 47.6989025,11.0022486 L47.6989025,11 Z" id="Path" transform="translate(25.011650, 24.506893) rotate(90.000000) translate(-25.011650, -24.506893) "></path>
        </g>
    </g>
</svg>