<?xml version="1.0" encoding="UTF-8"?>
<svg width="76px" height="76px" viewBox="0 0 76 76" version="1.1" xmlns="http://www.w3.org/2000/svg" xmlns:xlink="http://www.w3.org/1999/xlink">
    <title>brew-methods</title>
    <g id="Page-1" stroke="none" stroke-width="1" fill="none" fill-rule="evenodd">
        <g id="brew-methods" fill-rule="nonzero">
            <circle id="Oval" fill="#F1BC19" cx="66" cy="2" r="1"></circle>
            <circle id="Oval" fill="#F9DBD2" cx="38" cy="38" r="38"></circle>
            <circle id="Oval" fill="#F1BC19" cx="72" cy="4" r="4"></circle>
            <circle id="Oval" fill="#EE3E54" cx="2" cy="14" r="2"></circle>
            <circle id="Oval" fill="#FBCD59" cx="66" cy="65" r="2"></circle>
            <circle id="Oval" fill="#FBCD59" cx="5" cy="66" r="4"></circle>
            <circle id="Oval" fill="#EE3E54" cx="12" cy="71" r="2"></circle>
            <circle id="Oval" fill="#FFFFFF" cx="54.483" cy="66.517" r="2.483"></circle>
            <circle id="Oval" fill="#FFFFFF" cx="4" cy="36" r="1"></circle>
            <circle id="Oval" fill="#F1BC19" cx="74" cy="19" r="1"></circle>
            <circle id="Oval" fill="#FFFFFF" cx="68" cy="54" r="2"></circle>
            <g id="Group" transform="translate(16.000000, 8.000000)">
                <path d="M7.554,54 L35.446,54 C35.752,54 36,53.752 36,53.446 L36,12.554 C36,12.248 35.752,12 35.446,12 L11.525,12 C8.67,12 4.311,12 1.315,13.491 C0.959,13.75 0.79,14.35 1.271,14.687 C4.75,16.778 7,19.289 7,22.188 L7,53.447 C7,53.752 7.248,54 7.554,54 Z" id="Path" fill="#C5DEF0"></path>
                <path d="M36,12 C34.769,8.022 28.753,5 21.5,5 C14.247,5 8.231,8.022 7,12 L36,12 Z" id="Path" fill="#CBC9BC"></path>
                <path d="M36,12.5 L7,12.5 C6.841,12.5 6.692,12.424 6.598,12.297 C6.504,12.169 6.476,12.004 6.523,11.852 C7.84,7.592 14.139,4.5 21.5,4.5 C28.86,4.5 35.16,7.592 36.478,11.852 C36.525,12.004 36.498,12.169 36.403,12.297 C36.309,12.424 36.159,12.5 36,12.5 Z M7.727,11.5 L35.274,11.5 C33.656,7.986 28.04,5.5 21.501,5.5 C14.961,5.5 9.344,7.986 7.727,11.5 Z" id="Shape" fill="#472B29"></path>
                <rect id="Rectangle" fill="#472B29" x="21" y="1.5" width="1" height="4"></rect>
                <path d="M21.5,21 C21.224,21 21,20.776 21,20.5 L21,12 C21,11.724 21.224,11.5 21.5,11.5 C21.776,11.5 22,11.724 22,12 L22,20.5 C22,20.776 21.776,21 21.5,21 Z" id="Path" fill="#472B29"></path>
                <path d="M21.5,35 C21.224,35 21,34.776 21,34.5 L21,28 C21,27.724 21.224,27.5 21.5,27.5 C21.776,27.5 22,27.724 22,28 L22,34.5 C22,34.776 21.776,35 21.5,35 Z" id="Path" fill="#472B29"></path>
                <rect id="Rectangle" fill="#CBC9BC" x="7.5" y="20.5" width="28" height="8"></rect>
                <rect id="Rectangle" fill="#9F8066" x="8" y="42" width="28" height="8"></rect>
                <path d="M23.5,40.5 L19.5,40.5 L19.5,36.5 C19.5,35.395 20.395,34.5 21.5,34.5 L21.5,34.5 C22.605,34.5 23.5,35.395 23.5,36.5 L23.5,40.5 Z" id="Path" fill="#CBC9BC"></path>
                <path d="M23.5,41 L19.5,41 C19.224,41 19,40.776 19,40.5 L19,36.5 C19,35.122 20.122,34 21.5,34 C22.878,34 24,35.122 24,36.5 L24,40.5 C24,40.776 23.776,41 23.5,41 Z M20,40 L23,40 L23,36.5 C23,35.673 22.327,35 21.5,35 C20.673,35 20,35.673 20,36.5 L20,40 Z" id="Shape" fill="#472B29"></path>
                <path d="M31.906,44.5 L11.094,44.5 C9.109,44.5 7.5,42.891 7.5,40.906 L7.5,40.5 L35.5,40.5 L35.5,40.906 C35.5,42.891 33.891,44.5 31.906,44.5 Z" id="Path" fill="#CBC9BC"></path>
                <path d="M31.906,45 L11.094,45 C8.836,45 7,43.164 7,40.906 L7,40.5 C7,40.224 7.224,40 7.5,40 L35.5,40 C35.776,40 36,40.224 36,40.5 L36,40.906 C36,43.164 34.163,45 31.906,45 Z M8.001,41 C8.051,42.663 9.419,44 11.093,44 L31.906,44 C33.581,44 34.949,42.663 34.999,41 L8.001,41 Z" id="Shape" fill="#472B29"></path>
                <path d="M41.094,21.5 L35.5,21.5 L35.5,26.5 L41,26.5 C41.276,26.5 41.5,26.724 41.5,27 L41.5,40.5 C41.5,42.709 43.291,44.5 45.5,44.5 L45.5,44.5 L45.5,25.906 C45.5,23.473 43.527,21.5 41.094,21.5 Z" id="Path" fill="#00A5A5"></path>
                <path d="M45.5,45 C43.019,45 41,42.981 41,40.5 L41,27 L35.5,27 C35.224,27 35,26.776 35,26.5 L35,21.5 C35,21.224 35.224,21 35.5,21 L41.094,21 C43.799,21 46,23.201 46,25.906 L46,44.5 C46,44.776 45.776,45 45.5,45 Z M36,26 L41,26 C41.552,26 42,26.449 42,27 L42,40.5 C42,42.26 43.306,43.721 45,43.964 L45,25.906 C45,23.752 43.248,22 41.094,22 L36,22 L36,26 Z" id="Shape" fill="#472B29"></path>
                <path d="M34.6,13.4 L34.6,52.6 L8.4,52.6 L8.4,22.25 C8.4,19.354 6.6,16.606 3.174,14.247 C5.793,13.4 9.174,13.4 11.525,13.4 L34.6,13.4 M35.446,12 L11.525,12 C8.67,12 4.311,12 1.315,13.491 C0.959,13.75 0.79,14.35 1.271,14.687 C4.75,16.779 7,19.351 7,22.25 L7,53.446 C7,53.752 7.248,54 7.554,54 L35.446,54 C35.752,54 36,53.752 36,53.446 L36,12.554 C36,12.248 35.752,12 35.446,12 L35.446,12 Z" id="Shape" fill="#472B29"></path>
                <path d="M14,20.75 L7.25,20.75 C6.974,20.75 6.75,20.526 6.75,20.25 C6.75,19.974 6.974,19.75 7.25,19.75 L14,19.75 C14.276,19.75 14.5,19.974 14.5,20.25 C14.5,20.526 14.276,20.75 14,20.75 Z" id="Path" fill="#472B29"></path>
                <path d="M15,28.75 L8,28.75 C7.724,28.75 7.5,28.526 7.5,28.25 C7.5,27.974 7.724,27.75 8,27.75 L15,27.75 C15.276,27.75 15.5,27.974 15.5,28.25 C15.5,28.526 15.276,28.75 15,28.75 Z" id="Path" fill="#472B29"></path>
                <path d="M23,20.75 L16.25,20.75 C15.974,20.75 15.75,20.526 15.75,20.25 C15.75,19.974 15.974,19.75 16.25,19.75 L23,19.75 C23.276,19.75 23.5,19.974 23.5,20.25 C23.5,20.526 23.276,20.75 23,20.75 Z" id="Path" fill="#472B29"></path>
                <path d="M24,1.75 L19,1.75 C18.724,1.75 18.5,1.526 18.5,1.25 C18.5,0.974 18.724,0.75 19,0.75 L24,0.75 C24.276,0.75 24.5,0.974 24.5,1.25 C24.5,1.526 24.276,1.75 24,1.75 Z" id="Path" fill="#472B29"></path>
                <path d="M35,20.75 L25.25,20.75 C24.974,20.75 24.75,20.526 24.75,20.25 C24.75,19.974 24.974,19.75 25.25,19.75 L35,19.75 C35.276,19.75 35.5,19.974 35.5,20.25 C35.5,20.526 35.276,20.75 35,20.75 Z" id="Path" fill="#472B29"></path>
                <path d="M35.001,28.75 L18,28.75 C17.724,28.75 17.5,28.526 17.5,28.25 C17.5,27.974 17.724,27.75 18,27.75 L35,27.75 C35.276,27.75 35.5,27.974 35.5,28.25 C35.5,28.526 35.277,28.75 35.001,28.75 Z" id="Path" fill="#472B29"></path>
                <g transform="translate(5.000000, 50.000000)">
                    <rect id="Rectangle" fill="#00A5A5" x="0.5" y="0.5" width="32" height="4"></rect>
                    <path d="M32,1 L32,4 L1,4 L1,1 L32,1 M33,0 L0,0 L0,5 L33,5 L33,0 L33,0 Z" id="Shape" fill="#472B29"></path>
                </g>
                <g transform="translate(10.000000, 7.000000)" id="Path">
                    <path d="M3.803,1.126 C1.998,1.848 1.115,2.594 1.115,2.594" fill="#CBC9BC"></path>
                    <path d="M1.115,2.844 C1.044,2.844 0.973,2.814 0.924,2.755 C0.835,2.65 0.848,2.492 0.954,2.403 C0.991,2.371 1.889,1.622 3.71,0.894 C3.837,0.843 3.983,0.905 4.035,1.033 C4.086,1.161 4.024,1.306 3.896,1.358 C2.157,2.053 1.285,2.778 1.276,2.785 C1.229,2.824 1.172,2.844 1.115,2.844 Z" fill="#472B29"></path>
                </g>
                <g transform="translate(15.000000, 6.000000)" id="Path">
                    <path d="M9.406,0.969 C5.911,0.581 3.127,0.89 1.027,1.413" fill="#CBC9BC"></path>
                    <path d="M1.028,1.663 C0.916,1.663 0.814,1.587 0.785,1.474 C0.752,1.34 0.833,1.204 0.967,1.171 C3.528,0.533 6.378,0.381 9.433,0.721 C9.571,0.736 9.669,0.86 9.654,0.997 C9.639,1.133 9.509,1.231 9.379,1.218 C6.379,0.884 3.59,1.032 1.088,1.656 C1.068,1.66 1.048,1.663 1.028,1.663 Z" fill="#472B29"></path>
                </g>
            </g>
        </g>
    </g>
</svg>