<svg xmlns="http://www.w3.org/2000/svg" viewBox="0 0 100 100" width="100px" height="100px"><circle cx="78" cy="14" r="1" fill="#f1bc19"/><circle cx="50" cy="50" r="38" fill="#f9dbd2"/><circle cx="84" cy="16" r="4" fill="#f1bc19"/><circle cx="14" cy="26" r="2" fill="#ee3e54"/><circle cx="78" cy="77" r="2" fill="#fbcd59"/><circle cx="17" cy="78" r="4" fill="#fbcd59"/><circle cx="24" cy="83" r="2" fill="#ee3e54"/><circle cx="66.483" cy="78.517" r="2.483" fill="#fff"/><circle cx="16" cy="48" r="1" fill="#fff"/><circle cx="86" cy="31" r="1" fill="#f1bc19"/><circle cx="80" cy="66" r="2" fill="#fff"/><path fill="#d68e54" d="M64.059,30.838L60.219,75.3H40.273l-4.608-44.462"/><path fill="#472b29" d="M60.86,76H39.643l-4.675-45.089c-0.041-0.384,0.238-0.728,0.623-0.769 c0.377-0.039,0.729,0.238,0.77,0.623l4.542,43.837h18.675l3.784-43.825c0.034-0.386,0.378-0.668,0.759-0.636 c0.385,0.034,0.67,0.374,0.636,0.758L60.86,76z"/><path fill="#88ae45" d="M40.707,38.842h-4.043l2.597,22.8H61.19l1.973-22.8h-15.8"/><path fill="#472b29" d="M61.19,61.917H39.261c-0.178,0-0.328-0.135-0.348-0.314L36.316,38.56 c-0.011-0.1,0.02-0.2,0.086-0.275c0.066-0.076,0.162-0.118,0.261-0.118h4.043c0.193,0,0.35,0.159,0.35,0.353 c0,0.195-0.157,0.353-0.35,0.353h-3.651l2.518,22.336h21.296l1.913-22.336H51.363c-0.193,0-0.35-0.159-0.35-0.353 c0-0.195,0.157-0.353,0.35-0.353h11.8c0.098,0,0.191,0.041,0.258,0.114c0.067,0.073,0.099,0.171,0.091,0.27l-1.973,23.043 C61.523,61.776,61.371,61.917,61.19,61.917z"/><g><path fill="#cdcbbd" d="M36.664,27.65l1.433-2.984h23.53l1.536,3.198H49.554"/></g><g><path fill="#472b29" d="M63.163,28.363H49.554c-0.276,0-0.5-0.224-0.5-0.5s0.224-0.5,0.5-0.5h12.814l-1.056-2.198H38.411 l-1.297,2.7c-0.12,0.249-0.417,0.354-0.667,0.234c-0.249-0.12-0.354-0.418-0.234-0.667l1.434-2.984 c0.083-0.173,0.258-0.284,0.451-0.284h23.53c0.192,0,0.368,0.11,0.451,0.284l1.536,3.198c0.074,0.155,0.064,0.337-0.027,0.482 C63.494,28.275,63.335,28.363,63.163,28.363z"/></g><g><path fill="#fdfcef" d="M64.315,30.679H35.409c-0.774,0-1.408-0.634-1.408-1.407l0,0c0-0.773,0.634-1.407,1.408-1.407 h28.907c0.775,0,1.408,0.634,1.408,1.407l0,0C65.723,30.045,65.09,30.679,64.315,30.679z"/></g><g><path fill="#472b29" d="M64.315,30.887H35.409c-1.052,0-1.908-0.855-1.908-1.907c0-1.051,0.856-1.907,1.908-1.907h28.907 c1.052,0,1.908,0.855,1.908,1.907S65.368,30.887,64.315,30.887z M35.409,28.071c-0.501,0-0.908,0.407-0.908,0.907 c0,0.501,0.407,0.907,0.908,0.907h28.907c0.501,0,0.908-0.407,0.908-0.907c0-0.501-0.407-0.907-0.908-0.907H35.409z"/></g><g><path fill="#472b29" d="M58.335,60.169c-0.007,0-0.015,0-0.022-0.001c-0.193-0.012-0.34-0.178-0.328-0.371l1.134-18.45 c0.012-0.193,0.188-0.334,0.371-0.328c0.193,0.012,0.34,0.178,0.328,0.371l-1.134,18.45C58.672,60.026,58.518,60.169,58.335,60.169 z"/></g><g><path fill="#472b29" d="M54.457,60.169c-0.003,0-0.007,0-0.011,0c-0.193-0.006-0.345-0.167-0.339-0.36l0.569-18.515 c0.005-0.193,0.162-0.354,0.36-0.339c0.193,0.006,0.345,0.167,0.339,0.36L54.806,59.83C54.801,60.019,54.645,60.169,54.457,60.169z"/></g><g><path fill="#472b29" d="M45.884,51.875l-0.375-10.646c-0.006-0.193,0.146-0.354,0.339-0.36 c0.198-0.015,0.355,0.146,0.36,0.339l0.375,10.646c0.006,0.193-0.146,0.354-0.339,0.36c-0.004,0-0.008,0-0.011,0 C46.045,52.214,45.889,52.064,45.884,51.875z"/><path fill="#472b29" d="M46.12,59.83l-0.148-5.315c-0.006-0.193,0.146-0.354,0.339-0.36 c0.198-0.015,0.355,0.146,0.36,0.339l0.148,5.315c0.006,0.193-0.146,0.354-0.339,0.36c-0.004,0-0.008,0-0.011,0 C46.281,60.169,46.125,60.019,46.12,59.83z"/></g><g><path fill="#472b29" d="M42.122,49.248l0.691,10.63c0.012,0.193-0.135,0.358-0.328,0.37 c-0.197,0.021-0.359-0.135-0.37-0.328l-0.691-10.63c-0.012-0.193,0.135-0.358,0.328-0.37c0.004,0,0.008,0,0.011,0 C41.951,48.914,42.111,49.059,42.122,49.248z"/><path fill="#472b29" d="M41.65,41.304l0.306,5.308c0.012,0.193-0.135,0.358-0.328,0.37 c-0.197,0.021-0.359-0.135-0.37-0.328l-0.306-5.308c-0.012-0.193,0.135-0.358,0.328-0.37c0.004,0,0.008,0,0.011,0 C41.479,40.97,41.64,41.115,41.65,41.304z"/></g><g><path fill="#472b29" d="M50.549,60.169c-0.193,0-0.35-0.157-0.35-0.35V41.283c0-0.193,0.157-0.35,0.35-0.35 s0.35,0.157,0.35,0.35v18.535C50.9,60.012,50.743,60.169,50.549,60.169z"/></g><path fill="#472b29" d="M43.717,38.873h4.866c0.473,0,0.465-0.706,0-0.706h-4.866c-0.193,0-0.35,0.158-0.35,0.353	C43.367,38.714,43.524,38.873,43.717,38.873z"/></svg>