<?xml version="1.0" encoding="UTF-8"?>
<svg width="78px" height="78px" viewBox="0 0 78 78" version="1.1" xmlns="http://www.w3.org/2000/svg" xmlns:xlink="http://www.w3.org/1999/xlink">
    <title>icons8-cafe</title>
    <g id="Page-1" stroke="none" stroke-width="1" fill="none" fill-rule="evenodd">
        <g id="icons8-cafe" fill-rule="nonzero">
            <path d="M2,16 C0.8954305,16 0,16.8954305 0,18 C0,19.1045695 0.8954305,20 2,20 C3.1045695,20 4,19.1045695 4,18 C4,16.8954305 3.1045695,16 2,16 Z" id="Path" fill="#EE3E54"></path>
            <path d="M66,1 C65.4477153,1 65,1.44771525 65,2 C65,2.55228475 65.4477153,3 66,3 C66.5522847,3 67,2.55228475 67,2 C67,1.44771525 66.5522847,1 66,1 Z" id="Path" fill="#F1BC19"></path>
            <path d="M39,2 C18.5654643,2 2,18.5654643 2,39 C2,59.4345357 18.5654643,76 39,76 C59.4345357,76 76,59.4345357 76,39 C76,18.5654643 59.4345357,2 39,2 Z" id="Path" fill="#FCE0A2"></path>
            <path d="M72,0 C69.790861,0 68,1.790861 68,4 C68,6.209139 69.790861,8 72,8 C74.209139,8 76,6.209139 76,4 C76,1.790861 74.209139,0 72,0 Z" id="Path" fill="#F1BC19"></path>
            <path d="M76,11 C74.8954305,11 74,11.8954305 74,13 C74,14.1045695 74.8954305,15 76,15 C77.1045695,15 78,14.1045695 78,13 C78,11.8954305 77.1045695,11 76,11 Z" id="Path" fill="#EE3E54"></path>
            <path d="M70,63 C68.8954305,63 68,63.8954305 68,65 C68,66.1045695 68.8954305,67 70,67 C71.1045695,67 72,66.1045695 72,65 C72,63.8954305 71.1045695,63 70,63 Z M4,48 C1.790861,48 0,49.790861 0,52 C0,54.209139 1.790861,56 4,56 C6.209139,56 8,54.209139 8,52 C8,49.790861 6.209139,48 4,48 Z" id="Shape" fill="#FBCD59"></path>
            <path d="M14,74 C12.8954305,74 12,74.8954305 12,76 C12,77.1045695 12.8954305,78 14,78 C15.1045695,78 16,77.1045695 16,76 C16,74.8954305 15.1045695,74 14,74 Z" id="Path" fill="#EE3E54"></path>
            <path d="M7.5,40 C6.11928813,40 5,41.1192881 5,42.5 C5,43.8807119 6.11928813,45 7.5,45 C8.88071187,45 10,43.8807119 10,42.5 C10,41.1192881 8.88071187,40 7.5,40 Z" id="Path" fill="#FFFFFF"></path>
            <path d="M10,55 C9.44771525,55 9,55.4477153 9,56 C9,56.5522847 9.44771525,57 10,57 C10.5522847,57 11,56.5522847 11,56 C11,55.4477153 10.5522847,55 10,55 Z" id="Path" fill="#F1BC19"></path>
            <path d="M69,22 C68.4477153,22 68,22.4477153 68,23 C68,23.5522847 68.4477153,24 69,24 C69.5522847,24 70,23.5522847 70,23 C70,22.4477153 69.5522847,22 69,22 Z" id="Path" fill="#FFFFFF"></path>
            <path d="M53.5,47.2 L53.5,45.8 C56.267,45.8 61.918,43.764 64.13,40.694 C65.051,39.417 65.288,38.08 64.836,36.722 C64.469,35.62 63.83,34.906 62.885,34.537 C59.851,33.356 54.889,36.083 54.84,36.112 L54.16,34.887 C54.387,34.761 59.758,31.82 63.391,33.232 C64.731,33.753 65.663,34.778 66.163,36.278 C66.758,38.062 66.447,39.872 65.265,41.511 C62.764,44.984 56.626,47.2 53.5,47.2 Z" id="Path" fill="#472B29"></path>
            <path d="M29.291,55.3 C21.364,47.279 19.84,40.119 19.7109104,28.982 C19.707,28.638 19.837,28.316 20.077,28.073 C20.314,27.833 20.63,27.701 20.966,27.701 L56.029,27.701 C56.366,27.701 56.682,27.834 56.919,28.074 C57.16,28.319 57.29,28.644 57.2841988,28.99 C57.113,39.67 55.484,47.421 47.709,55.301 L29.291,55.301 L29.291,55.3 Z" id="Path" fill="#F37E98"></path>
            <path d="M56.03,28.4 C56.219,28.4 56.347,28.489 56.421,28.565 C56.484,28.629 56.589,28.767 56.585111,28.978 C56.417,39.386 54.849,46.958 47.415,54.601 L29.585,54.601 C22.005,46.832 20.537,39.828 20.4109716,28.974 C20.409,28.765 20.513,28.628 20.576,28.564 C20.65,28.49 20.777,28.4 20.966,28.4 L56.03,28.4 M56.03,27 L20.966,27 C19.874,27 18.999,27.897 19.010878,28.989 C19.138,39.904 20.507,47.507 29,56 L48,56 C56.02,47.98 57.808,39.96 57.9852433,29 C58.002,27.904 57.126,27 56.03,27 L56.03,27 Z" id="Shape" fill="#472B29"></path>
            <path d="M52.222,36.561 C52.201,36.561 52.179,36.56 52.159,36.557 C51.885,36.522 51.69,36.272 51.725,35.998 C51.859,34.945 51.96,33.844 52.037,32.63 C52.055,32.356 52.266,32.139 52.567,32.162 C52.842,32.18 53.052,32.417 53.035,32.692 C52.958,33.927 52.853,35.049 52.718,36.123 C52.685,36.376 52.47,36.561 52.222,36.561 Z M51.461,40.72 C51.422,40.72 51.381,40.715 51.341,40.705 C51.073,40.639 50.909,40.368 50.976,40.1 C51.135,39.454 51.274,38.798 51.396,38.133 C51.447,37.862 51.7,37.684 51.979,37.732 C52.25,37.783 52.43,38.043 52.38,38.315 C52.254,39 52.111,39.674 51.946,40.34 C51.89,40.567 51.686,40.72 51.461,40.72 Z M47.17,50.226 C47.071,50.226 46.972,50.197 46.885,50.137 C46.658,49.98 46.602,49.668 46.759,49.441 C48.391,47.088 49.593,44.662 50.436,42.02 C50.52,41.758 50.798,41.611 51.065,41.696 C51.328,41.78 51.473,42.061 51.389,42.325 C50.515,45.061 49.27,47.576 47.581,50.012 C47.483,50.15 47.328,50.226 47.17,50.226 Z" id="Shape" fill="#472B29"></path>
            <path d="M24.999,60.3 C19.543,60.3 16.736,53.857 16.709,53.791 C16.574,53.484 16.581,53.176 16.724,52.958 C16.834,52.789 17.016,52.7 17.25,52.7 L60.297,52.7 C60.596,52.7 60.749,52.85 60.826,52.977 C60.957,53.193 60.953,53.478 60.816,53.739 C60.776,53.818 57.495,60.3 52.501,60.3 L24.999,60.3 L24.999,60.3 Z" id="Path" fill="#F37E98"></path>
            <path d="M60.202,53.4 C60.197,53.413 60.19,53.427 60.181,53.443 C60.151,53.505 57.005,59.6 52.501,59.6 L24.999,59.6 C20.017,59.6 17.379,53.577 17.347,53.502 C17.329,53.462 17.32,53.427 17.316,53.399 L60.202,53.399 M60.297,52 L17.25,52 C16.173,52 15.625,53.063 16.064,54.064 C16.064,54.064 19,61 24.999,61 L52.501,61 C58,61 61.436,54.064 61.436,54.064 C61.937,53.109 61.374,52 60.297,52 L60.297,52 Z" id="Shape" fill="#472B29"></path>
            <path d="M39.442,24.512 C39.281,24.512 39.122,24.434 39.026,24.288 C37.733,22.345 37.546,20.336 38.416,17.774 C38.506,17.512 38.789,17.376 39.051,17.461 C39.313,17.55 39.452,17.834 39.364,18.096 C38.593,20.366 38.741,22.051 39.859,23.735 C40.012,23.964 39.95,24.275 39.719,24.427 C39.634,24.484 39.538,24.512 39.442,24.512 Z" id="Path" fill="#472B29"></path>
            <path d="M39.695,16.459 C39.625,16.459 39.554,16.444 39.486,16.413 C39.235,16.298 39.126,16.001 39.241,15.75 C39.512,15.161 39.7,14.518 39.802,13.838 C39.842,13.565 40.102,13.376 40.369,13.417 C40.642,13.457 40.831,13.712 40.79,13.984 C40.675,14.758 40.46,15.493 40.149,16.168 C40.065,16.351 39.885,16.459 39.695,16.459 Z" id="Path" fill="#472B29"></path>
            <path d="M40.335,12.073 C40.082,12.073 39.865,11.882 39.839,11.625 C39.709,10.372 39.375,9.489 39.371,9.48 C39.272,9.222 39.4,8.933 39.658,8.834 C39.919,8.734 40.205,8.863 40.304,9.119 C40.321,9.16 40.69,10.127 40.833,11.52 C40.861,11.795 40.662,12.041 40.388,12.069 C40.37,12.072 40.353,12.073 40.335,12.073 Z" id="Path" fill="#472B29"></path>
            <path d="M45.403,24.161 C45.239,24.161 45.078,24.08 44.982,23.932 C44.097,22.557 43.851,21.106 44.208,19.365 C44.264,19.094 44.532,18.918 44.799,18.975 C45.07,19.031 45.243,19.295 45.189,19.566 C44.883,21.054 45.08,22.234 45.825,23.391 C45.974,23.623 45.907,23.933 45.675,24.082 C45.59,24.136 45.496,24.161 45.403,24.161 Z" id="Path" fill="#472B29"></path>
            <path d="M45.487,17.47 C45.427,17.47 45.367,17.459 45.307,17.437 C45.049,17.337 44.921,17.048 45.02,16.791 L45.198,16.333 C46.087,14.047 46.927,11.887 45.711,9.562 C45.583,9.318 45.678,9.015 45.923,8.887 C46.164,8.761 46.469,8.854 46.598,9.099 C48.024,11.826 47.062,14.301 46.13,16.695 L45.954,17.15 C45.878,17.348 45.688,17.47 45.487,17.47 Z" id="Path" fill="#472B29"></path>
            <path d="M32.579,24.351 C32.415,24.351 32.254,24.27 32.158,24.122 C30.452,21.468 31.429,18.952 32.375,16.519 C33.264,14.234 34.103,12.076 32.887,9.751 C32.759,9.507 32.854,9.204 33.099,9.076 C33.344,8.95 33.645,9.043 33.774,9.288 C35.199,12.015 34.238,14.488 33.308,16.881 C32.413,19.182 31.569,21.355 33,23.58 C33.149,23.812 33.082,24.122 32.85,24.271 C32.766,24.325 32.672,24.351 32.579,24.351 Z" id="Path" fill="#472B29"></path>
            <path d="M35.5,30.75 L22.5,30.75 C22.362,30.75 22.25,30.638 22.25,30.5 C22.25,30.362 22.362,30.25 22.5,30.25 L35.5,30.25 C35.638,30.25 35.75,30.362 35.75,30.5 C35.75,30.638 35.638,30.75 35.5,30.75 Z" id="Path" fill="#472B29"></path>
            <path d="M45.5,30.75 L37.5,30.75 C37.362,30.75 37.25,30.638 37.25,30.5 C37.25,30.362 37.362,30.25 37.5,30.25 L45.5,30.25 C45.638,30.25 45.75,30.362 45.75,30.5 C45.75,30.638 45.638,30.75 45.5,30.75 Z" id="Path" fill="#472B29"></path>
            <path d="M46.5,55.75 L21.5,55.75 C21.362,55.75 21.25,55.638 21.25,55.5 C21.25,55.362 21.362,55.25 21.5,55.25 L46.5,55.25 C46.638,55.25 46.75,55.362 46.75,55.5 C46.75,55.638 46.638,55.75 46.5,55.75 Z" id="Path" fill="#472B29"></path>
            <path d="M56.5,55.75 L49.5,55.75 C49.362,55.75 49.25,55.638 49.25,55.5 C49.25,55.362 49.362,55.25 49.5,55.25 L56.5,55.25 C56.638,55.25 56.75,55.362 56.75,55.5 C56.75,55.638 56.638,55.75 56.5,55.75 Z" id="Path" fill="#472B29"></path>
            <path d="M53.5,30.75 L48.5,30.75 C48.362,30.75 48.25,30.638 48.25,30.5 C48.25,30.362 48.362,30.25 48.5,30.25 L53.5,30.25 C53.638,30.25 53.75,30.362 53.75,30.5 C53.75,30.638 53.638,30.75 53.5,30.75 Z" id="Path" fill="#472B29"></path>
        </g>
    </g>
</svg>