<?xml version="1.0" encoding="UTF-8"?>
<svg width="40px" height="37px" viewBox="0 0 40 37" version="1.1" xmlns="http://www.w3.org/2000/svg" xmlns:xlink="http://www.w3.org/1999/xlink">
    <title>Shape</title>
    <g id="02.01:-Cafe" stroke="none" stroke-width="1" fill="none" fill-rule="evenodd">
        <g id="00:-Cafe" transform="translate(-1258.000000, -169.000000)" fill="#342C0C" fill-rule="nonzero">
            <g id="Main-Body" transform="translate(136.000000, 155.000000)">
                <g id="Company-Info">
                    <g id="Company-Data" transform="translate(90.000000, 0.000000)">
                        <g id="Like" transform="translate(1032.000000, 14.000000)">
                            <path d="M11.6075722,0 C5.21473954,0 0,5.22556109 0,11.6316605 C0,17.3947246 4.462384,23.2554262 8.70793262,27.9334494 C12.9534815,32.6114711 17.1875,36.0271338 17.1875,36.0271338 C17.2003598,36.0373789 17.2133825,36.0474168 17.2265631,36.0572439 C17.9119954,36.5759735 18.7719908,36.9131472 19.7055292,36.9756119 C19.8026878,36.9930884 19.9012992,37.001155 20,36.999867 C20.0976983,37.0009627 20.1952944,36.9928968 20.2914662,36.9756119 C20.2964793,36.9746333 20.3014876,36.9736297 20.3064908,36.9726011 C21.2352585,36.9078932 22.0910077,36.5737011 22.7734369,36.0572439 C22.7866175,36.0474168 22.7996402,36.0373789 22.8125,36.0271338 C22.8125,36.0271338 27.0465185,32.6114711 31.2920677,27.9334494 C35.5376169,23.2554247 40,17.3947246 40,11.6316605 C40,5.22556109 34.78526,0 28.3924277,0 C24.3708354,0 21.5229831,2.21774461 20,3.78789241 C18.4770169,2.21774461 15.6291646,0 11.6075722,0 Z M11.6075722,3.08330835 C15.8094262,3.08330835 18.3658862,6.54038583 18.6207938,6.89830027 C18.886302,7.41046872 19.4150326,7.73115402 19.9909862,7.72934823 C20.0030047,7.72948935 20.0150245,7.72948935 20.0270431,7.72934823 C20.0390739,7.72848622 20.0510942,7.72748248 20.0631015,7.72633722 C20.1022647,7.72482289 20.1413557,7.72180964 20.1802892,7.71730405 C20.6879236,7.66148269 21.1348404,7.35690321 21.3731969,6.90432228 C21.6152892,6.56360068 24.1786662,3.08330835 28.3924277,3.08330835 C33.1226723,3.08330835 36.9230769,6.89159947 36.9230769,11.6316605 C36.9230769,15.6442256 33.0765662,21.3829038 29.0144231,25.8588408 C24.9661015,30.3195447 20.9350277,33.5779233 20.9074523,33.6002325 C20.6372862,33.8017329 20.3370723,33.9163919 20,33.9163919 C19.6629277,33.9163919 19.3627138,33.8017391 19.0925477,33.6002325 C19.0649785,33.5779248 15.0338985,30.3195447 10.9855769,25.8588408 C6.92343323,21.3829053 3.07692308,15.6442256 3.07692308,11.6316605 C3.07692308,6.89159947 6.87732769,3.08330835 11.6075722,3.08330835 Z" id="Shape"></path>
                        </g>
                    </g>
                </g>
            </g>
        </g>
    </g>
</svg>