<?xml version="1.0" encoding="UTF-8"?>
<svg width="40px" height="37px" viewBox="0 0 40 37" version="1.1" xmlns="http://www.w3.org/2000/svg" xmlns:xlink="http://www.w3.org/1999/xlink">
    <title>Path</title>
    <g id="02.01:-Cafe" stroke="none" stroke-width="1" fill="none" fill-rule="evenodd">
        <g id="00:-Cafe" transform="translate(-1258.000000, -169.000000)" fill="#D64545" fill-rule="nonzero">
            <g id="Main-Body" transform="translate(136.000000, 155.000000)">
                <g id="Company-Info">
                    <g id="Company-Data" transform="translate(90.000000, 0.000000)">
                        <g id="Liked" transform="translate(1018.000000, 14.000000)">
                            <path d="M24.9082032,0 C18.8832032,0 14,4.92759592 14,11.0073688 C14,21.5900399 26.1649583,31.7019347 31.8483067,36.2050785 C31.8537186,36.2094751 31.8591442,36.2138546 31.8645833,36.2182169 C31.903525,36.2490682 31.9564683,36.2930124 31.9947917,36.3233305 L31.9980467,36.320046 C32.57467,36.7597055 33.2772794,36.9983435 34,37 C34.723835,36.9990558 35.4276956,36.7603809 36.0052083,36.320046 L36.0052083,36.3233305 C36.016425,36.3144573 36.0330017,36.3026862 36.04427,36.2937675 C36.05284,36.2869848 36.0649667,36.2775834 36.0735683,36.2707737 C36.0844829,36.2609914 36.0953337,36.2511369 36.10612,36.2412107 C41.7718483,31.7542476 54,21.6152924 54,11.0073688 C54,4.92759592 49.1167967,0 43.0917967,0 C37.3334633,0 34,5.04545455 34,5.04545455 C34,5.04545455 30.6665367,0 24.9082032,0 Z" id="Path"></path>
                        </g>
                    </g>
                </g>
            </g>
        </g>
    </g>
</svg>