<svg width="125" height="33" viewBox="0 0 125 33" fill="none" xmlns="http://www.w3.org/2000/svg">
<path d="M1.656 29V24.896L14.328 8.264H1.656V3.62H20.844V7.724L8.136 24.356H21.384V29H1.656ZM24.7044 29V3.62H42.0924V7.976H30.0324V13.916H41.3004V18.308H30.0324V24.644H42.0924V29H24.7044ZM46.5013 29V3.62H58.0933C60.9253 3.62 63.1093 4.304 64.6453 5.672C66.1813 7.04 66.9493 8.948 66.9493 11.396C66.9493 13.292 66.4573 14.876 65.4733 16.148C64.5133 17.396 63.1333 18.248 61.3333 18.704C62.6053 19.088 63.6493 20.012 64.4653 21.476L68.5693 29H62.4133L58.0213 20.9C57.6613 20.252 57.2173 19.808 56.6893 19.568C56.1613 19.304 55.5373 19.172 54.8173 19.172H52.0813V29H46.5013ZM52.0813 15.14H57.0853C60.0853 15.14 61.5853 13.94 61.5853 11.54C61.5853 9.164 60.0853 7.976 57.0853 7.976H52.0813V15.14ZM71.5677 29V3.62H75.7077L88.3797 19.784V3.62H93.5637V29H89.4597L76.7517 12.8V29H71.5677Z" fill="black"/>
<path d="M115.437 23.0455C113.607 19.2179 111.182 18.0535 108.615 16.8205C106.133 15.6283 103.567 14.3961 101.711 10.5131C101.045 9.12183 100.671 7.82438 100.551 6.50641C97.5238 9.86744 96.9337 15.6218 99.4646 20.9157C102.65 27.5788 109.587 31.0225 114.929 28.5931C115.584 28.295 116.185 27.9215 116.729 27.4849C116.655 27.391 116.606 27.2758 116.597 27.1485C116.496 25.8098 116.116 24.4678 115.437 23.0455Z" fill="black"/>
<path d="M103.363 4.40705C102.79 4.66765 102.261 4.98874 101.772 5.3564C101.774 5.37463 101.777 5.39235 101.777 5.41109C101.753 6.92164 102.097 8.3687 102.861 9.96514C104.526 13.4492 106.678 14.4825 109.169 15.6787C111.699 16.8939 114.566 18.2709 116.587 22.4974C117.232 23.8469 117.63 25.1392 117.8 26.4288C120.776 23.0587 121.342 17.3437 118.827 12.0839C115.642 5.42133 108.705 1.97743 103.363 4.40705Z" fill="#6F4E37"/>
</svg>
