<svg width="187" height="64" viewBox="0 0 187 64" fill="none" xmlns="http://www.w3.org/2000/svg">
<path d="M61.9963 45V40.896L74.6683 24.264H61.9963V19.62H81.1843V23.724L68.4763 40.356H81.7243V45H61.9963ZM85.0448 45V19.62H102.433V23.976H90.3728V29.916H101.641V34.308H90.3728V40.644H102.433V45H85.0448ZM106.842 45V19.62H118.434C121.266 19.62 123.45 20.304 124.986 21.672C126.522 23.04 127.29 24.948 127.29 27.396C127.29 29.292 126.798 30.876 125.814 32.148C124.854 33.396 123.474 34.248 121.674 34.704C122.946 35.088 123.99 36.012 124.806 37.476L128.91 45H122.754L118.362 36.9C118.002 36.252 117.558 35.808 117.03 35.568C116.502 35.304 115.878 35.172 115.158 35.172H112.422V45H106.842ZM112.422 31.14H117.426C120.426 31.14 121.926 29.94 121.926 27.54C121.926 25.164 120.426 23.976 117.426 23.976H112.422V31.14ZM131.908 45V19.62H136.048L148.72 35.784V19.62H153.904V45H149.8L137.092 28.8V45H131.908ZM170.786 45.396C168.29 45.396 166.094 44.856 164.198 43.776C162.326 42.672 160.862 41.148 159.806 39.204C158.774 37.236 158.258 34.932 158.258 32.292C158.258 29.652 158.774 27.36 159.806 25.416C160.862 23.448 162.326 21.924 164.198 20.844C166.07 19.764 168.266 19.224 170.786 19.224C173.306 19.224 175.502 19.764 177.374 20.844C179.27 21.924 180.734 23.448 181.766 25.416C182.822 27.36 183.35 29.64 183.35 32.256C183.35 34.896 182.822 37.2 181.766 39.168C180.734 41.136 179.27 42.672 177.374 43.776C175.502 44.856 173.306 45.396 170.786 45.396ZM170.786 40.644C172.898 40.644 174.542 39.912 175.718 38.448C176.918 36.96 177.518 34.908 177.518 32.292C177.518 29.652 176.93 27.612 175.754 26.172C174.578 24.708 172.922 23.976 170.786 23.976C168.698 23.976 167.054 24.708 165.854 26.172C164.678 27.612 164.09 29.652 164.09 32.292C164.09 34.908 164.678 36.96 165.854 38.448C167.054 39.912 168.698 40.644 170.786 40.644Z" fill="black"/>
<path d="M40.8976 44.4419C37.4658 37.1213 32.9188 34.8943 28.1051 32.5362C23.45 30.256 18.6379 27.8994 15.1564 20.4729C13.9091 17.812 13.2062 15.3306 12.9825 12.8099C7.30478 19.2381 6.19815 30.2435 10.9446 40.3684C16.9185 53.112 29.9284 59.6983 39.9456 55.0518C41.1746 54.4818 42.3004 53.7673 43.3219 52.9323C43.1825 52.7529 43.0916 52.5324 43.0739 52.289C42.8846 49.7286 42.1727 47.162 40.8976 44.4419Z" fill="black"/>
<path d="M18.2556 8.79476C17.1811 9.29318 16.1891 9.90727 15.2725 10.6105C15.2751 10.6453 15.2817 10.6792 15.2813 10.715C15.2363 13.6041 15.8819 16.3716 17.3132 19.4249C20.4369 26.0883 24.4715 28.0647 29.1429 30.3523C33.8881 32.6766 39.2648 35.3101 43.0542 43.3935C44.2641 45.9745 45.011 48.4461 45.3291 50.9125C50.9112 44.4671 51.9725 33.5368 47.2568 23.4772C41.2837 10.7346 28.2737 4.14798 18.2556 8.79476Z" fill="#6F4E37"/>
</svg>
