<svg width="191" height="68" viewBox="0 0 191 68" fill="none" xmlns="http://www.w3.org/2000/svg">
<path d="M66.656 47V42.896L79.328 26.264H66.656V21.62H85.844V25.724L73.136 42.356H86.384V47H66.656ZM89.7044 47V21.62H107.092V25.976H95.0324V31.916H106.3V36.308H95.0324V42.644H107.092V47H89.7044ZM111.501 47V21.62H123.093C125.925 21.62 128.109 22.304 129.645 23.672C131.181 25.04 131.949 26.948 131.949 29.396C131.949 31.292 131.457 32.876 130.473 34.148C129.513 35.396 128.133 36.248 126.333 36.704C127.605 37.088 128.649 38.012 129.465 39.476L133.569 47H127.413L123.021 38.9C122.661 38.252 122.217 37.808 121.689 37.568C121.161 37.304 120.537 37.172 119.817 37.172H117.081V47H111.501ZM117.081 33.14H122.085C125.085 33.14 126.585 31.94 126.585 29.54C126.585 27.164 125.085 25.976 122.085 25.976H117.081V33.14ZM136.568 47V21.62H140.708L153.38 37.784V21.62H158.564V47H154.46L141.752 30.8V47H136.568ZM175.445 47.396C172.949 47.396 170.753 46.856 168.857 45.776C166.985 44.672 165.521 43.148 164.465 41.204C163.433 39.236 162.917 36.932 162.917 34.292C162.917 31.652 163.433 29.36 164.465 27.416C165.521 25.448 166.985 23.924 168.857 22.844C170.729 21.764 172.925 21.224 175.445 21.224C177.965 21.224 180.161 21.764 182.033 22.844C183.929 23.924 185.393 25.448 186.425 27.416C187.481 29.36 188.009 31.64 188.009 34.256C188.009 36.896 187.481 39.2 186.425 41.168C185.393 43.136 183.929 44.672 182.033 45.776C180.161 46.856 177.965 47.396 175.445 47.396ZM175.445 42.644C177.557 42.644 179.201 41.912 180.377 40.448C181.577 38.96 182.177 36.908 182.177 34.292C182.177 31.652 181.589 29.612 180.413 28.172C179.237 26.708 177.581 25.976 175.445 25.976C173.357 25.976 171.713 26.708 170.513 28.172C169.337 29.612 168.749 31.652 168.749 34.292C168.749 36.908 169.337 38.96 170.513 40.448C171.713 41.912 173.357 42.644 175.445 42.644Z" fill="black"/>
<g clip-path="url(#clip0)">
<path d="M45.6574 46.4423C42.2437 39.1214 37.7206 36.8943 32.9323 34.5362C28.3016 32.2558 23.5149 29.8992 20.0518 22.4725C18.811 19.8115 18.1118 17.33 17.8892 14.8093C12.2415 21.2376 11.1408 32.2432 15.8623 42.3685C21.8049 55.1124 34.7462 61.6989 44.7106 57.0524C45.933 56.4824 47.0529 55.7679 48.0691 54.9329C47.9304 54.7534 47.8399 54.533 47.8223 54.2896C47.634 51.7291 46.9259 49.1624 45.6574 46.4423Z" fill="black"/>
<path d="M23.1355 10.7941C22.0666 11.2926 21.0799 11.9067 20.1681 12.6098C20.1707 12.6447 20.1773 12.6786 20.1768 12.7144C20.1321 15.6035 20.7743 18.3712 22.1981 21.4245C25.3053 28.0881 29.3187 30.0646 33.9655 32.3523C38.6858 34.6766 44.0341 37.3103 47.8036 45.394C49.0071 47.975 49.7501 50.4467 50.0666 52.9131C55.6191 46.4676 56.6748 35.537 51.9838 25.4772C46.0421 12.7342 33.1006 6.14731 23.1355 10.7941Z" fill="#6F4E37"/>
</g>
<defs>
<clipPath id="clip0">
<rect width="51" height="51" fill="white" transform="translate(0 21.6874) rotate(-25.166)"/>
</clipPath>
</defs>
</svg>
