<svg width="83" height="33" viewBox="0 0 83 33" fill="none" xmlns="http://www.w3.org/2000/svg">
<path d="M2.13 25V3.85H11.79C14.15 3.85 15.97 4.45 17.25 5.65C18.53 6.83 19.17 8.48 19.17 10.6C19.17 12.72 18.53 14.38 17.25 15.58C15.97 16.78 14.15 17.38 11.79 17.38H6.78V25H2.13ZM6.78 13.78H11.01C13.47 13.78 14.7 12.72 14.7 10.6C14.7 8.52 13.47 7.48 11.01 7.48H6.78V13.78ZM22.0519 25V3.85H36.5419V7.48H26.4919V12.43H35.8819V16.09H26.4919V21.37H36.5419V25H22.0519ZM50.4759 25.33C48.1959 25.33 46.2459 24.88 44.6259 23.98C43.0059 23.08 41.7559 21.82 40.8759 20.2C40.0159 18.56 39.5859 16.63 39.5859 14.41C39.5859 12.21 40.0159 10.3 40.8759 8.68C41.7559 7.04 43.0059 5.77 44.6259 4.87C46.2459 3.97 48.1959 3.52 50.4759 3.52C51.8759 3.52 53.2159 3.74 54.4959 4.18C55.7759 4.62 56.8259 5.22 57.6459 5.98L56.2059 9.67C55.3059 8.97 54.3959 8.46 53.4759 8.14C52.5759 7.8 51.6259 7.63 50.6259 7.63C48.6059 7.63 47.0759 8.22 46.0359 9.4C45.0159 10.56 44.5059 12.23 44.5059 14.41C44.5059 16.59 45.0159 18.27 46.0359 19.45C47.0759 20.63 48.6059 21.22 50.6259 21.22C51.6259 21.22 52.5759 21.06 53.4759 20.74C54.3959 20.4 55.3059 19.88 56.2059 19.18L57.6459 22.87C56.8259 23.61 55.7759 24.21 54.4959 24.67C53.2159 25.11 51.8759 25.33 50.4759 25.33ZM60.6945 25V3.85H65.3445V12.34H75.1845V3.85H79.8345V25H75.1845V16.21H65.3445V25H60.6945Z" fill="black"/>
<rect x="2" y="29" width="78" height="4" fill="#5A67D8"/>
</svg>
