<?xml version="1.0" encoding="UTF-8"?>
<svg width="18px" height="20px" viewBox="0 0 18 20" version="1.1" xmlns="http://www.w3.org/2000/svg" xmlns:xlink="http://www.w3.org/1999/xlink">
    <!-- Generator: Sketch 64 (93537) - https://sketch.com -->
    <title>Element / Icon / Outline / Coffee Bag</title>
    <desc>Created with Sketch.</desc>
    <g id="Symbols" stroke="none" stroke-width="1" fill="none" fill-rule="evenodd">
        <g id="Element-/-Icon-/-Outline-/-Coffee-Bag" transform="translate(-1.000000, 0.000000)" fill="#342C0C" fill-rule="nonzero">
            <path d="M3,0 L3,3.6972656 L1.3378906,6.1914062 C1.1163007,6.5217767 1,6.9094482 1,7.3027344 L1,18 C1,19.093063 1.9069372,20 3,20 L14.236328,20 L17.892578,18.171875 L17.894531,18.169922 C18.569365,17.832312 19,17.13729 19,16.382812 L19,6.4140625 C19,5.8857926 18.791144,5.3760803 18.414062,5 L18.412109,4.9980469 L17,3.5859375 L17,0 L3,0 Z M5,2 L15,2 L15,3.6972656 L13.335938,6.1933594 C13.116289,6.5228299 13,6.9094569 13,7.3027344 L13,18 L3,18 L3,7.3046875 L3,7.3027344 L5,4.3027344 L5,2 Z M16.154297,5.5703125 L17,6.4160156 L17,16.380859 L15,17.380859 L15,7.3027344 L16.154297,5.5703125 Z M8,8 C8,8 5,11.339094 5,12.996094 C5,14.527094 6.1547188,15.769172 7.6367188,15.951172 C6.9847188,15.787172 6.5,15.202 6.5,14.5 C6.5,13.672 8,12 8,12 C8,12 9.5,13.672 9.5,14.5 C9.5,15.202 9.015281,15.786219 8.363281,15.949219 C9.845281,15.767219 11,14.527094 11,12.996094 C11,11.339094 8,8 8,8 Z"></path>
        </g>
    </g>
</svg>