<?xml version="1.0" encoding="UTF-8"?>
<svg width="18px" height="20px" viewBox="0 0 18 20" version="1.1" xmlns="http://www.w3.org/2000/svg" xmlns:xlink="http://www.w3.org/1999/xlink">
    <!-- Generator: Sketch 64 (93537) - https://sketch.com -->
    <title>Path</title>
    <desc>Created with Sketch.</desc>
    <g id="Symbols" stroke="none" stroke-width="1" fill="none" fill-rule="evenodd">
        <g id="Element-/-Icon-/-Outline-/-Matcha" transform="translate(-1.000000, 0.000000)" fill="#342C0C" fill-rule="nonzero">
            <path d="M14.638672,0 L14.068359,0.1171875 C14.068359,0.1171875 11.891965,0.568668 9.320312,1.625 C6.7486616,2.6813319 3.7126699,4.32389 1.953125,6.9589843 L1.9375,6.9804687 L1.9238281,7.0019531 C1.117214,8.3572051 1,9.6596791 1,10.6582031 C1,12.5654781 1.8970272,14.1787251 3.0566406,15.2929691 C3.5502907,15.7673041 4.0941263,16.1436051 4.65625,16.4433591 C3.7124953,17.1489831 2.6998074,17.7396081 1.6289062,18.1679691 L2.3710938,20.0234371 C7.7463903,17.8733191 11.645891,12.6244371 12.964844,7.3242187 L11.023438,6.8417969 C10.297056,9.7607641 8.626181,12.7160021 6.3535156,14.9785151 C5.7600793,14.8030091 5.0409385,14.4257621 4.4433594,13.8515621 C3.6029728,13.0440561 3,11.9379281 3,10.6582031 C3,9.7998361 3.0742979,9.0030021 3.6367188,8.046875 C5.007217,6.0135806 7.6982404,4.4529735 10.080078,3.4746093 C12.148033,2.625176 13.437855,2.3654908 13.880859,2.265625 C16.039377,4.9804289 16.969237,8.3170891 16.998047,10.4863281 C17.028137,12.7344971 16.446926,14.3614251 15.582031,15.4277341 C14.720357,16.4900731 13.57295,17.0352671 12.242188,17.0917971 C11.647213,17.0842971 10.968543,17.1112671 9.982422,16.3535151 L8.763672,17.9394531 C10.225887,19.0630501 11.710143,19.0871771 12.253906,19.0957031 L12.28125,19.0957031 L12.308594,19.0957031 C14.172464,19.0217531 15.919161,18.1861911 17.134766,16.6875001 C18.350371,15.1888091 19.03296,13.0697681 18.998047,10.4609371 C18.960613,7.6417916 17.860042,3.6580853 15.023438,0.4355469 L14.638672,0 Z" id="Path"></path>
        </g>
    </g>
</svg>