<?xml version="1.0" encoding="UTF-8"?>
<svg width="20px" height="14px" viewBox="0 0 20 14" version="1.1" xmlns="http://www.w3.org/2000/svg" xmlns:xlink="http://www.w3.org/1999/xlink">
    <!-- Generator: Sketch 64 (93537) - https://sketch.com -->
    <title>Element / Icon / Outline / Coffee Bag</title>
    <desc>Created with Sketch.</desc>
    <g id="Symbols" stroke="none" stroke-width="1" fill="none" fill-rule="evenodd">
        <g id="Element-/-Icon-/-Outline-/-Delivery" transform="translate(0.000000, -3.000000)" fill="#342C0C" fill-rule="nonzero">
            <path d="M0,3 L0,4.66666667 L0,13.8333333 L3.33333333,13.8333333 C3.33333333,15.2141667 4.4525,16.3333333 5.83333333,16.3333333 C7.21416667,16.3333333 8.33333333,15.2141667 8.33333333,13.8333333 L13.3333333,13.8333333 C13.3333333,15.2141667 14.4525,16.3333333 15.8333333,16.3333333 C17.2141667,16.3333333 18.3333333,15.2141667 18.3333333,13.8333333 L20,13.8333333 L20,9.66666667 L17.5,4.66666667 L14.1666667,4.66666667 L14.1666667,3 L0,3 Z M1.66666667,4.66666667 L12.5,4.66666667 L12.5,12.1666667 L7.68391925,12.1666667 C7.22635617,11.6588892 6.570763,11.3333333 5.83333333,11.3333333 C5.09590367,11.3333333 4.4403105,11.6588892 3.98274742,12.1666667 L1.66666667,12.1666667 L1.66666667,4.66666667 Z M14.1666667,6.33333333 L16.4697267,6.33333333 L18.3333333,10.0605467 L18.3333333,12.1666667 L17.6839192,12.1666667 C17.2263558,11.6588892 16.5707633,11.3333333 15.8333333,11.3333333 C15.18993,11.3333333 14.6097,11.5835258 14.1666667,11.9827475 L14.1666667,6.33333333 Z M5.83333333,12.7916667 C6.4075,12.7916667 6.875,13.2591667 6.875,13.8333333 C6.875,14.4075 6.4075,14.875 5.83333333,14.875 C5.25916667,14.875 4.79166667,14.4075 4.79166667,13.8333333 C4.79166667,13.2591667 5.25916667,12.7916667 5.83333333,12.7916667 Z M15.8333333,12.7916667 C16.4075,12.7916667 16.875,13.2591667 16.875,13.8333333 C16.875,14.4075 16.4075,14.875 15.8333333,14.875 C15.2591667,14.875 14.7916667,14.4075 14.7916667,13.8333333 C14.7916667,13.2591667 15.2591667,12.7916667 15.8333333,12.7916667 Z" id="Element-/-Icon-/-Outline-/-Coffee-Bag"></path>
        </g>
    </g>
</svg>