<?xml version="1.0" encoding="UTF-8"?>
<svg width="20px" height="14px" viewBox="0 0 20 14" version="1.1" xmlns="http://www.w3.org/2000/svg" xmlns:xlink="http://www.w3.org/1999/xlink">
    <!-- Generator: Sketch 64 (93537) - https://sketch.com -->
    <title>Shape</title>
    <desc>Created with Sketch.</desc>
    <g id="Symbols" stroke="none" stroke-width="1" fill="none" fill-rule="evenodd">
        <g id="Element-/-Icon-/-Outline-/-Tea" transform="translate(0.000000, -3.000000)" fill="#342C0C" fill-rule="nonzero">
            <path d="M9.56217417,3 C8.87181836,3 8.3121745,3.55964419 8.3121745,4.25 C8.31304082,4.43057376 8.35302029,4.60881609 8.42936167,4.77246092 C7.15964408,4.992333 6.00033858,5.56579933 5.05045575,6.40332033 C4.51619892,5.83889058 3.74471075,5.5 2.91666667,5.5 C1.31628792,5.5 0,6.81628792 0,8.41666667 C0,9.87027417 1.08862967,11.1153167 2.5309245,11.3089192 C2.49985525,11.5913308 2.47884117,11.8763367 2.47884117,12.1666667 C2.47884117,13.5092592 2.712082,14.6497667 3.56445317,15.3974608 C4.41682417,16.145155 5.613076,16.3333333 7.22981767,16.3333333 L11.8961592,16.3333333 C13.5525917,16.3333333 14.7507633,16.1484417 15.5973308,15.3925783 C16.1438567,14.9046083 16.4049908,14.245765 16.5332033,13.4899092 C18.5715817,11.9620983 20,9.0520525 20,6.33333333 L20,5.5 L17.9882817,5.5 L17.7441408,5.74414067 C17.205165,6.28311667 15.9781517,6.93202458 14.7672525,7.11295575 C13.7152492,5.89936475 12.2960025,5.05151208 10.696615,4.7740885 C10.7726249,4.60981934 10.8120533,4.43100235 10.8121742,4.25 C10.8121742,3.55964406 10.2525301,3 9.56217417,3 Z M9.56217417,6.33333333 C10.5600725,6.33333333 11.5031625,6.64127042 12.3177083,7.16666667 L6.80664067,7.16666667 C7.62118667,6.64127042 8.5642775,6.33333333 9.56217417,6.33333333 Z M2.91666667,7.16666667 C3.33238675,7.16666667 3.70696692,7.38569633 3.92089842,7.66796875 C3.48584142,8.27668583 3.13759817,8.9535975 2.89225258,9.6829425 C2.85887831,9.67709699 2.82517863,9.67329215 2.79134117,9.67154917 C2.19848117,9.61226333 1.66666667,9.01388917 1.66666667,8.41666667 C1.66666667,7.72537875 2.22537875,7.16666667 2.91666667,7.16666667 Z M18.1738283,7.4140625 C17.9327725,8.70809083 17.3206533,10.0638675 16.5608725,11.08431 C16.4375775,10.2010758 16.1762433,9.36155417 15.784505,8.60221333 C16.6924675,8.34822 17.5000083,7.91046742 18.1738283,7.4140625 Z M5.1334635,8.83333333 L13.990885,8.83333333 C14.6088533,9.77673667 14.9788408,10.9233175 14.9788408,12.1666667 C14.9788408,13.3333333 14.8074042,13.8632858 14.487305,14.1490883 C14.167205,14.4348917 13.4063925,14.6666667 11.8961592,14.6666667 L7.22981767,14.6666667 C5.76322617,14.6666667 4.9998425,14.4381783 4.6647135,14.1442058 C4.32958458,13.8502333 4.14550783,13.3240742 4.14550783,12.1666667 C4.14550783,10.9233175 4.51549525,9.77673667 5.1334635,8.83333333 Z" id="Shape"></path>
        </g>
    </g>
</svg>